# xmcd
#
# Track frame offsets:
#	182
#	15610
#	30987
#	47572
#	61702
#	77725
#	90910
#	104002
#	117835
#	131125
#	148902
#	164545
#	181037
#	194105
#	207595
#
# Disc length: 2969 seconds
#
# Revision: 0
# Processed by: cddbd v1.5.2PL0 Copyright (c) Steve Scherf et al.
# Submitted via: audiograbber 1.83.01
#
DISCID=ce0b970f
DTITLE=karaoke - 6064
DYEAR=1900
DGENRE=karoake
TTITLE0=Alan Jackson - Summertime Blues
TTITLE1=Diamond Rio - Love A Little Stronger
TTITLE2=Kathy Mattea - Nobody's Gone Rain On Our Parade
TTITLE3=Mavericks - O What A Thrill
TTITLE4=George Strait - The Man In Love With You
TTITLE5=Pam Tillis - When You Walk In The Room
TTITLE6=Vince Gill - What The Cowgirls Do
TTITLE7=Dwight Yoakam - Pocket Of A Clown
TTITLE8=Linda Davis - Love Didn't Do It
TTITLE9=Mark Chesnutt  - She Dreams
TTITLE10=Rick Trevino - She Can't Say I Didn't Cry
TTITLE11=Michelle Wright - One Good Man
TTITLE12=Tim McGraw - Down On The Farm
TTITLE13=Joe Diffie - Third Rock From The Sun  **
TTITLE14=Confederate Railroad - Elvis And Andy
EXTD=
EXTT0=
EXTT1=
EXTT2=
EXTT3=
EXTT4=
EXTT5=
EXTT6=
EXTT7=
EXTT8=
EXTT9=
EXTT10=
EXTT11=
EXTT12=
EXTT13=
EXTT14=
PLAYORDER=
